# xmcd CD database file
# Generated: Mon May  7 16:46:56 2001 by WSPse's MP3c
#
# Track frame offsets:
#       150
#       18412
#       35127
#       65637
#       99332
#       121965
#       139362
#       158400
#       186922
#       219717
#       239200
#       255495
#       272695
#       288435
#       305937
#
# Disc length: 4367 seconds
#
# Revision: 2
# Processed by: cddbd v1.4b41PL1 Copyright (c) Steve Scherf et al.
# Submitted via: MP3c 0.26
#   WSPse pp3c-0.26 (NLS) - ENGLISH (Apr 18 2001)
#
DISCID=ea110d0f
DTITLE=Curtis Mayfield - The Masters - CD 1
DYEAR=1900
DGENRE=
TTITLE0=The Other Side Of The Town
TTITLE1=Give It Up
TTITLE2=Back To The World
TTITLE3=Right On For The Darkness
TTITLE4=Pusherman
TTITLE5=Gypsy Woman
TTITLE6=All Night Long
TTITLE7=Tell Me, Tell Me
TTITLE8=What Is My Woman For
TTITLE9=Heartbeat
TTITLE10=I´m So Proud
TTITLE11=Love´s Sweet Sensation
TTITLE12=Never Stop Loving Me
TTITLE13=Tripping Out
TTITLE14=Blue Monday People
EXTD=
EXTT0=
EXTT1=
EXTT2=
EXTT3=
EXTT4=
EXTT5=
EXTT6=
EXTT7=
EXTT8=
EXTT9=
EXTT10=
EXTT11=
EXTT12=
EXTT13=
EXTT14=
PLAYORDER=
